<svg width="129" height="138" viewBox="0 0 129 138" fill="none" xmlns="http://www.w3.org/2000/svg">
<g clip-path="url(#clip0)">
<path d="M62.0001 53.5C62.0001 53.5 61.5001 138 62 138H74.5C75.0001 138 74.5001 95 74.5001 95V50C74.5001 47.5347 73.7685 44.701 72.7801 42C71.1623 37.5794 68.8565 33.5141 67.9434 32L67.9162 31.955C66.4175 29.469 61.8908 21.9605 44.0001 15.5C28.1273 9.76815 8.66667 18.6667 0 26C3.5 27 9.00005 26.521 26.5 47.021C38.9042 61.5516 58.0001 59.8333 62.0001 53.5Z" fill="#219653" stroke="#219653"/>
<path d="M129.5 0H106C85.7039 0 73.7966 10.8213 68.5 21C73.5 25 82 39 82 47H93C113.8 47 129.5 15.5 129.5 0Z" fill="#6FCF97" stroke="#6FCF97"/>
</g>
<defs>
<clipPath id="clip0">
<rect width="129" height="138" fill="white"/>
</clipPath>
</defs>
</svg>
